<svg width="80" height="27" fill="none" xmlns="http://www.w3.org/2000/svg"><path d="M76.195 15.964c-.374.993-1.306 1.544-2.459 1.544-1.71 0-3.097-1.37-3.097-3.06s1.387-3.06 3.097-3.06c1.153 0 2.056.487 2.459 1.546h3.158c-.523-2.716-2.808-4.459-5.617-4.459-3.339 0-6.046 2.675-6.046 5.974 0 3.299 2.707 5.973 6.046 5.973 2.81 0 5.238-1.95 5.617-4.458h-3.158zM63.188 8.775h3.288v11.436h-3.288V8.775zm3.62-2.763a1.974 1.974 0 01-1.986 1.961 1.973 1.973 0 01-1.985-1.961c0-1.084.888-1.962 1.985-1.962 1.096 0 1.985.878 1.985 1.962zm-13.04 4.163c.552-.984 1.805-1.655 3.61-1.655 2.917 0 4.461 1.835 4.461 4.559v7.131h-3.288v-6.79c0-1.335-.602-2.252-2.056-2.252-1.594 0-2.476.965-2.476 2.488V20.2H50.73V8.775h3.038v1.4z" fill="#001A3A"/><path fill-rule="evenodd" clip-rule="evenodd" d="M43.62 17.508c1.71 0 3.097-1.37 3.097-3.06 0-1.689-1.386-3.059-3.096-3.059-1.71 0-3.097 1.37-3.097 3.06s1.386 3.06 3.097 3.06zm0 2.914c3.34 0 6.046-2.674 6.046-5.973 0-3.3-2.706-5.973-6.045-5.973-3.34 0-6.046 2.674-6.046 5.973s2.707 5.973 6.046 5.973z" fill="#001A3A"/><path d="M33.132 8.775h3.288v11.436h-3.288V8.775zm3.619-2.763a1.973 1.973 0 01-1.985 1.961 1.973 1.973 0 01-1.985-1.961c0-1.084.888-1.962 1.985-1.962 1.096 0 1.985.878 1.985 1.962zM3.278 13.5c0-5.666 4.648-10.26 10.38-10.26 2.308 0 4.44.743 6.163 2.003a3.897 3.897 0 012.485-2.193A13.706 13.706 0 0013.659 0C6.115 0 0 6.044 0 13.5S6.115 27 13.659 27c7.543 0 13.658-6.044 13.658-13.5 0-1.56-.268-3.062-.763-4.459a3.91 3.91 0 01-2.934 1.56c.272.919.419 1.89.419 2.899 0 5.666-4.648 10.26-10.38 10.26-5.733 0-10.38-4.594-10.38-10.26z" fill="#001A3A"/><path d="M24 12.623c-.108-1.136-.279-1.663-.38-2.025a3.867 3.867 0 002.93-1.557c.196.5.423 1.366.483 1.727-.516.688-1.53 1.633-3.033 1.854zm-10.341 6.783c3.292 0 5.975-2.647 5.975-5.906 0-3.254-2.678-5.906-5.976-5.906-3.297 0-5.975 2.652-5.975 5.906 0 3.254 2.683 5.906 5.976 5.906zm8.963-10.968c1.65 0 2.988-1.323 2.988-2.954 0-1.63-1.338-2.953-2.988-2.953s-2.988 1.322-2.988 2.953c0 1.631 1.338 2.954 2.988 2.954z" fill="#001A3A"/></svg>