<svg width="82" height="28" fill="none" xmlns="http://www.w3.org/2000/svg"><g clip-path="url(#clip0_2_14)" fill="#001A3A"><path d="M78.1 16.555c-.383 1.03-1.34 1.602-2.52 1.602a3.174 3.174 0 110-6.347c1.18 0 2.107.504 2.52 1.603h3.237c-.536-2.816-2.878-4.624-5.758-4.624a6.196 6.196 0 100 12.39c2.88 0 5.369-2.023 5.758-4.624H78.1zM64.767 9.1h3.371v11.86h-3.37V9.1h-.001zm3.71-2.866a2.036 2.036 0 11-4.069 0 2.035 2.035 0 014.07 0h-.001zm-13.365 4.318c.566-1.02 1.85-1.717 3.7-1.717 2.99 0 4.573 1.903 4.573 4.728v7.396h-3.37v-7.043c0-1.383-.617-2.335-2.107-2.335-1.634 0-2.539 1.001-2.539 2.58v6.788H52V9.099h3.113v1.453h-.001z"/><path fill-rule="evenodd" clip-rule="evenodd" d="M44.711 18.157a3.174 3.174 0 10.112-6.348 3.174 3.174 0 00-.111 6.348h-.001zm0 3.021a6.196 6.196 0 100-12.388 6.196 6.196 0 100 12.388z"/><path d="M33.96 9.1h3.37v11.86h-3.37V9.1zm3.71-2.866a2.035 2.035 0 11-4.07 0 2.035 2.035 0 014.07 0zM3.36 14C3.36 8.124 8.124 3.36 14 3.36c2.366 0 4.55.77 6.317 2.077a4.01 4.01 0 012.547-2.274A13.948 13.948 0 0014 0C6.268 0 0 6.268 0 14s6.268 14 14 14 14-6.268 14-14c0-1.618-.275-3.175-.782-4.624a3.995 3.995 0 01-3.008 1.618c.28.952.43 1.96.43 3.006 0 5.876-4.764 10.64-10.64 10.64S3.36 19.876 3.36 14z"/><path d="M27.712 11.164a13.906 13.906 0 00-.494-1.788 3.995 3.995 0 01-3.008 1.618c.198.674.331 1.375.392 2.098a4.372 4.372 0 003.11-1.928zM14 20.125A6.133 6.133 0 0020.125 14 6.132 6.132 0 0014 7.875 6.132 6.132 0 007.875 14 6.135 6.135 0 0014 20.125zM23.188 8.75a3.063 3.063 0 100-6.125 3.063 3.063 0 000 6.125z"/></g><defs><clipPath id="clip0_2_14"><path fill="#fff" d="M0 0h82v28H0z"/></clipPath></defs></svg>